<?xml version="1.0" encoding="UTF-8" standalone="no"?>
<svg
   xmlns:dc="http://purl.org/dc/elements/1.1/"
   xmlns:cc="http://creativecommons.org/ns#"
   xmlns:rdf="http://www.w3.org/1999/02/22-rdf-syntax-ns#"
   xmlns:svg="http://www.w3.org/2000/svg"
   xmlns="http://www.w3.org/2000/svg"
   xmlns:sodipodi="http://sodipodi.sourceforge.net/DTD/sodipodi-0.dtd"
   xmlns:inkscape="http://www.inkscape.org/namespaces/inkscape"
   width="95.439262mm"
   height="78.480675mm"
   viewBox="0 0 95.439262 78.480675"
   version="1.1"
   id="svg8"
   inkscape:version="1.0.2-2 (e86c870879, 2021-01-15)"
   sodipodi:docname="taskana-alt.svg">
  <defs
     id="defs2" />
  <sodipodi:namedview
     id="base"
     pagecolor="#ffffff"
     bordercolor="#666666"
     borderopacity="1.0"
     inkscape:pageopacity="0.0"
     inkscape:pageshadow="2"
     inkscape:zoom="0.35"
     inkscape:cx="193.98745"
     inkscape:cy="221.27476"
     inkscape:document-units="mm"
     inkscape:current-layer="layer1"
     inkscape:document-rotation="0"
     showgrid="false"
     inkscape:window-width="1431"
     inkscape:window-height="1019"
     inkscape:window-x="339"
     inkscape:window-y="78"
     inkscape:window-maximized="0" />
  <metadata
     id="metadata5">
    <rdf:RDF>
      <cc:Work
         rdf:about="">
        <dc:format>image/svg+xml</dc:format>
        <dc:type
           rdf:resource="http://purl.org/dc/dcmitype/StillImage" />
        <dc:title></dc:title>
      </cc:Work>
    </rdf:RDF>
  </metadata>
  <g
     inkscape:label="Layer 1"
     inkscape:groupmode="layer"
     id="layer1"
     transform="translate(-54.507485,-136.58575)">
    <g
       id="g72"
       transform="translate(-3.7797662,-3.7797619)">
      <path
         style="fill:#9eebe9;stroke-width:0.840168"
         d="m 85.769604,217.50736 c -1.242353,-0.69599 -7.934117,-8.40679 -14.870588,-17.13511 -11.084977,-13.94849 -12.611765,-16.23662 -12.611765,-18.90068 0,-1.66704 0.485288,-4.1702 1.078418,-5.56256 1.662403,-3.90247 26.119802,-33.71483 28.605327,-34.86848 4.145556,-1.92416 8.453718,0.45371 10.723448,5.91875 2.079466,5.00693 0.843582,7.64097 -9.989189,21.28989 l -10.067125,12.68424 9.023314,11.20581 c 6.922717,8.59714 9.134411,11.94317 9.500541,14.37319 0.677966,4.49968 -1.322242,9.27444 -4.599394,10.97936 -3.151879,1.63974 -3.890829,1.64144 -6.792987,0.0156 z m 32.236956,-0.0334 c -2.73872,-1.4831 -4.7546,-5.65028 -4.7546,-9.82854 0,-3.24758 1.74781,-5.98967 12.69348,-19.91444 l 7.14049,-9.08394 -2.61042,-3.57231 c -1.43572,-1.96478 -5.13602,-6.8738 -8.22286,-10.90894 -3.08685,-4.03514 -6.0247,-8.46483 -6.52855,-9.84375 -2.93453,-8.03115 4.66395,-16.78692 11.19583,-12.90101 3.22526,1.91875 25.67737,30.97979 26.42818,34.20749 1.2448,5.35131 0.0414,7.55989 -13.26149,24.3383 -11.68558,14.73858 -15.86963,18.95085 -18.71636,18.84265 -0.53095,-0.0202 -2.04461,-0.62115 -3.3637,-1.33549 z"
         id="path94" />
      <path
         style="fill:#58dbd5;stroke-width:0.840168"
         d="m 85.769604,217.519 c -1.242353,-0.70195 -7.726937,-8.17878 -14.410189,-16.61517 -13.033792,-16.45279 -14.219147,-18.80819 -12.049011,-23.94234 1.809947,-4.28201 27.702315,-35.70559 30.008755,-36.41932 3.093934,-0.95743 7.452395,2.09058 9.139934,6.39185 2.070677,5.27782 0.923395,7.7348 -10.172278,21.78458 l -9.647593,12.21617 9.022769,11.20513 c 9.881047,12.27101 10.885931,14.61011 8.719072,20.29571 -1.976757,5.1868 -6.550562,7.37785 -10.611459,5.08339 z m 31.934076,-0.81033 c -3.28288,-2.75462 -4.59975,-5.95151 -4.12331,-10.00995 0.3095,-2.63629 2.23978,-5.561 10.3425,-15.67066 l 9.962,-12.42943 -9.18705,-11.66673 c -8.97064,-11.39191 -9.18704,-11.76511 -9.18704,-15.84354 0,-5.09671 1.94483,-8.53333 5.70312,-10.0777 2.02133,-0.83062 3.1762,-0.83406 4.76587,-0.0142 1.15394,0.59514 7.74107,8.15242 14.63807,16.79397 l 12.54,15.71189 v 4.66788 4.66787 l -13.52479,16.78044 c -7.43863,9.22925 -14.29981,17.31613 -15.24706,17.97085 -2.47388,1.7099 -3.80382,1.53462 -6.68231,-0.88068 z"
         id="path92" />
      <path
         style="fill:#4bd9ba;stroke-width:0.840168"
         d="m 86.899016,218.13072 c -2.159944,-0.473 -25.643089,-29.54347 -27.524392,-34.07325 -0.926407,-2.2306 -1.00438,-3.46499 -0.370043,-5.85817 1.09679,-4.13791 27.45308,-36.67467 30.418736,-37.55183 3.112407,-0.92058 7.314051,2.03015 9.035776,6.34564 2.075737,5.20281 0.909773,7.69296 -10.172809,21.72616 l -9.648124,12.21683 8.324396,10.28317 c 4.578418,5.65574 8.838861,11.49458 9.467652,12.97518 2.993265,7.04821 -2.735353,15.42445 -9.531192,13.93627 z m 32.000004,-0.37857 c -4.60419,-3.17068 -6.67319,-8.72469 -4.88159,-13.10412 0.49683,-1.21445 5.17517,-7.57876 10.39633,-14.14291 l 9.49301,-11.93482 -8.76243,-11.04631 c -9.06111,-11.42285 -10.16925,-13.73469 -9.31168,-19.42644 0.78409,-5.20408 5.97017,-8.88096 9.93161,-7.04143 2.32277,1.07859 21.5874,24.26948 25.21386,30.35261 2.40714,4.03778 2.75755,7.73659 1.10129,11.62464 -1.29159,3.03199 -25.69856,33.29214 -28.04855,34.77503 -2.03824,1.28617 -3.201,1.27343 -5.13185,-0.0563 z"
         id="path90" />
      <path
         style="fill:#10cde9;stroke-width:0.840168"
         d="m 86.661825,217.52632 c -2.58087,-1.42172 -25.770605,-29.97205 -27.339538,-33.65941 -0.876707,-2.06047 -0.946029,-3.29712 -0.317706,-5.66761 1.075709,-4.05838 27.450195,-36.67428 30.347991,-37.52973 5.002845,-1.47686 11.185388,6.72613 9.460079,12.55162 -0.381778,1.28906 -5.161644,7.93308 -10.621928,14.76449 l -9.927786,12.42074 8.377266,10.54801 c 4.607497,5.80141 8.752968,11.46949 9.212158,12.59575 2.022803,4.96135 0.3642,10.85034 -3.801136,13.49621 -1.558367,0.98988 -2.931598,1.76553 -3.051625,1.72366 -0.120027,-0.0419 -1.172026,-0.60156 -2.337775,-1.24373 z m 32.550485,0.0718 c -4.20801,-2.36996 -6.54351,-7.93846 -5.20397,-12.40772 0.45342,-1.51278 5.12233,-8.12902 10.37537,-14.70275 l 9.55098,-11.95224 -8.37706,-10.54776 c -4.60739,-5.80127 -8.75277,-11.46924 -9.21196,-12.5955 -3.05138,-7.48414 2.98367,-16.9663 9.17828,-14.42078 2.34647,0.96423 23.61098,26.66736 26.40077,31.9115 1.51985,2.85697 1.5801,6.80421 0.15491,10.15045 -2.53723,5.95724 -28.90177,36.59083 -30.75646,35.73668 -0.0909,-0.0419 -1.04082,-0.56922 -2.11086,-1.17188 z"
         id="path88" />
      <path
         style="fill:#0ccdd7;stroke-width:0.840168"
         d="m 86.522545,217.43561 c -2.906696,-1.61835 -27.793704,-32.82871 -27.173617,-34.07796 0.257823,-0.51942 0.118892,-1.21364 -0.308736,-1.54271 -0.427627,-0.32907 -0.582835,-0.9905 -0.344905,-1.46984 0.325657,-0.65608 12.112305,-13.02113 22.873365,-23.99582 0.174181,-0.17764 -0.503466,-1.45092 -1.505883,-2.82951 l -1.822577,-2.50653 2.282446,1.95937 2.282446,1.95936 5.844398,-5.94225 c 5.120612,-5.20635 5.677164,-6.06342 4.494024,-6.92063 -0.742704,-0.53811 -0.972536,-0.99121 -0.510737,-1.00689 1.496759,-0.0508 4.959368,3.95617 5.947645,6.88272 0.66425,1.96701 0.741956,3.59106 0.250516,5.23576 -0.39183,1.31134 -5.179923,7.97359 -10.640207,14.805 l -9.927786,12.42074 8.377266,10.54801 c 4.607497,5.80141 8.752968,11.46949 9.212158,12.59575 2.022803,4.96135 0.3642,10.85034 -3.801136,13.49621 -1.558367,0.98988 -2.931598,1.76538 -3.051625,1.72333 -0.120027,-0.0421 -1.234702,-0.64241 -2.477055,-1.33411 z m 32.689765,0.16256 c -4.20801,-2.36996 -6.54351,-7.93846 -5.20397,-12.40772 0.45342,-1.51278 5.11605,-8.12118 10.36141,-14.68533 l 9.53702,-11.93482 -8.76243,-11.04631 c -8.59936,-10.84075 -10.10112,-13.7403 -9.42203,-18.19182 0.2648,-1.73583 0.35815,-1.5661 0.43888,0.79803 0.0564,1.65152 0.49574,4.0773 0.97634,5.39063 0.76067,2.07873 1.36989,2.40143 4.70588,2.49266 2.10764,0.0576 4.92065,0.26218 6.25113,0.45454 2.03434,0.29413 2.34332,0.0911 1.94291,-1.27667 -0.44909,-1.53406 -0.39069,-1.53325 1.02848,0.0142 1.01749,1.10948 2.76516,1.64063 5.39825,1.64063 h 3.89366 v 3.6387 c 0,3.55081 0.0851,3.66539 3.52318,4.74331 1.93776,0.60753 4.45454,1.93034 5.59285,2.93957 2.43169,2.15594 4.03537,7.4325 3.327,10.94671 -0.65352,3.24206 -24.26599,32.98451 -28.33135,35.68637 -1.69263,1.12494 -3.13021,2.01107 -3.1946,1.9692 -0.0644,-0.0419 -0.99257,-0.56923 -2.06261,-1.17188 z"
         id="path86" />
      <path
         style="fill:#09cec9;stroke-width:0.840168"
         d="m 86.522545,217.43892 c -2.470309,-1.37176 -22.211764,-25.7627 -22.211764,-27.44306 0,-0.57123 2.417661,-3.48937 5.372581,-6.48476 19.350863,-19.61588 18.914967,-19.08512 17.437146,-21.23218 -1.343467,-1.95186 -1.340564,-1.95449 0.527367,-0.47735 1.819436,1.43879 1.99887,1.35703 5.728237,-2.61003 7.037458,-7.486 5.183368,-4.24052 -4.657441,8.1526 -5.349046,6.73638 -9.878084,12.44585 -10.06453,12.68772 -0.186447,0.24186 3.419029,5.17169 8.012168,10.95517 4.593139,5.78347 8.726862,11.43689 9.186052,12.56315 2.022803,4.96135 0.3642,10.85034 -3.801136,13.49621 -1.558367,0.98988 -2.931598,1.76538 -3.051625,1.72333 -0.120027,-0.0421 -1.234702,-0.64092 -2.477055,-1.3308 z m 32.689765,0.15925 c -4.20801,-2.36996 -6.54351,-7.93846 -5.20397,-12.40772 0.45342,-1.51278 5.12192,-8.1285 10.37445,-14.7016 l 9.55006,-11.95109 -7.51692,-9.42542 c -5.03706,-6.31595 -6.89592,-9.16683 -5.63456,-8.64159 2.69784,1.1234 10.64083,0.62908 11.30222,-0.70339 0.39912,-0.80409 0.70232,-0.82779 1.07163,-0.0838 0.28326,0.57067 2.01973,1.03759 3.85882,1.03759 3.17455,0 3.3438,0.13528 3.3438,2.67287 0,1.47008 -0.84706,4.65646 -1.88235,7.08085 -1.0353,2.4244 -1.88236,4.54387 -1.88236,4.70995 0,0.16607 0.97694,0.54523 2.17099,0.84258 1.19404,0.29734 3.01147,0.80328 4.03874,1.12431 1.47417,0.46068 1.95381,0.1739 2.27617,-1.36094 0.24447,-1.16402 1.02336,-1.94462 1.94035,-1.94462 1.94418,0 2.89147,1.81842 1.52904,2.93513 -0.84655,0.69388 -0.76849,1.10619 0.42392,2.23894 0.80385,0.76363 1.90503,1.38843 2.44706,1.38843 0.54202,0 0.9855,0.68757 0.9855,1.52793 0,2.1651 -24.22436,32.39786 -27.93538,34.86423 -1.69263,1.12494 -3.13021,2.01107 -3.1946,1.9692 -0.0644,-0.0419 -0.99257,-0.56923 -2.06261,-1.17188 z"
         id="path84" />
      <path
         style="fill:#0cb9c9;stroke-width:0.840168"
         d="m 86.504546,217.44726 c -1.252252,-0.68528 -5.233429,-5.09052 -8.847059,-9.78942 -5.009534,-6.51403 -6.566308,-9.1506 -6.5537,-11.09943 0.02221,-3.43298 2.623178,-10.3931 5.07997,-13.59386 l 1.995968,-2.60039 8.177142,10.10039 c 10.485399,12.95154 11.756192,15.95956 9.429068,22.31898 -0.707596,1.93367 -5.723882,6.35851 -6.786335,5.98619 -0.120027,-0.0421 -1.242801,-0.63716 -2.495054,-1.32246 z m 32.707764,0.15091 c -2.56674,-1.4456 -3.93464,-3.27778 -5.10188,-6.83353 -1.48181,-4.51405 0.20194,-8.00385 8.99207,-18.6372 4.26244,-5.15625 7.33099,-8.67428 6.819,-7.81784 -0.512,0.85644 -0.66033,1.75605 -0.32964,1.99913 1.62911,1.19748 5.45421,1.57305 7.26941,0.71374 1.80394,-0.85396 2.11416,-0.70648 2.72554,1.29571 0.39832,1.30447 1.42305,2.38877 2.42458,2.56556 0.95407,0.16841 1.73468,0.82883 1.73468,1.4676 0,2.02831 -15.84446,22.18735 -19.16632,24.38547 -1.75326,1.16016 -3.24044,2.07511 -3.30483,2.03324 -0.0644,-0.0419 -0.99257,-0.56923 -2.06261,-1.17188 z m 19.63965,-20.31448 c 0,-0.51563 -0.14942,-0.9375 -0.33203,-0.9375 -0.18262,0 -0.54144,0.42187 -0.79738,0.9375 -0.25594,0.51562 -0.10653,0.9375 0.33203,0.9375 0.43856,0 0.79738,-0.42188 0.79738,-0.9375 z m -11.90581,-27.53226 c -3.39063,-4.31462 -6.16478,-8.04267 -6.16478,-8.28456 0,-0.24189 2.41113,-0.45756 5.35806,-0.47926 3.39169,-0.025 5.56774,-0.46189 5.92941,-1.19053 0.40716,-0.82028 0.71936,-0.85289 1.08638,-0.11348 0.28326,0.57067 2.01973,1.03759 3.85882,1.03759 3.07607,0 3.3438,0.19007 3.3438,2.37386 0,1.30562 -0.45689,3.73141 -1.01531,5.39063 -1.07467,3.19311 -4.76834,9.11051 -5.68684,9.11051 -0.29962,0 -3.31891,-3.53014 -6.70954,-7.84476 z"
         id="path82" />
      <path
         style="fill:#04cdad;stroke-width:0.840168"
         d="m 86.504546,217.44726 c -1.252252,-0.68528 -5.233429,-5.09052 -8.847059,-9.78942 -7.223322,-9.39268 -7.614774,-10.71202 -5.164238,-17.4054 0.755109,-2.0625 2.32487,-5.15421 3.488358,-6.87046 l 2.115432,-3.12046 8.218486,10.15171 c 10.529574,13.00643 11.799373,16.00586 9.47041,22.3703 -0.707596,1.93367 -5.723882,6.35851 -6.786335,5.98619 -0.120027,-0.0421 -1.242801,-0.63716 -2.495054,-1.32246 z m 32.707764,0.15091 c -2.56674,-1.4456 -3.93464,-3.27778 -5.10188,-6.83353 -1.48181,-4.51405 0.20194,-8.00385 8.99207,-18.6372 4.26244,-5.15625 7.33099,-8.67428 6.819,-7.81784 -0.512,0.85644 -0.66033,1.75605 -0.32964,1.99913 1.62911,1.19748 5.45421,1.57305 7.26941,0.71374 1.80394,-0.85396 2.11416,-0.70648 2.72554,1.29571 0.39832,1.30447 1.42305,2.38877 2.42458,2.56556 0.95407,0.16841 1.73468,0.82883 1.73468,1.4676 0,2.02831 -15.84446,22.18735 -19.16632,24.38547 -1.75326,1.16016 -3.24044,2.07511 -3.30483,2.03324 -0.0644,-0.0419 -0.99257,-0.56923 -2.06261,-1.17188 z m 19.63965,-20.31448 c 0,-0.51563 -0.14942,-0.9375 -0.33203,-0.9375 -0.18262,0 -0.54144,0.42187 -0.79738,0.9375 -0.25594,0.51562 -0.10653,0.9375 0.33203,0.9375 0.43856,0 0.79738,-0.42188 0.79738,-0.9375 z m -9.9942,-25.09795 c -2.37142,-2.98385 -4.31179,-5.62387 -4.31193,-5.86673 -4.4e-4,-0.82745 13.72871,-0.12927 14.42154,0.73338 0.71758,0.89348 -3.60036,9.70525 -5.02725,10.25928 -0.42387,0.16458 -2.71093,-2.14209 -5.08236,-5.12593 z"
         id="path80" />
      <path
         style="fill:#00ce9b;stroke-width:0.840168"
         d="m 88.404898,217.90869 c 0,-0.51563 -0.618585,-0.9375 -1.374634,-0.9375 -1.257607,0 -4.648895,-3.57562 -4.648895,-4.90158 0,-0.30908 2.18563,-2.72743 4.856956,-5.3741 5.272447,-5.22378 5.560227,-6.694 1.670912,-8.5364 -3.767214,-1.78456 -4.5289,-1.81318 -6.456145,-0.24262 -1.402873,1.14324 -1.721127,1.18512 -1.413195,0.18597 0.317208,-1.02925 -0.658061,-1.24898 -4.831377,-1.08849 l -5.228811,0.20108 0.504061,-3.01255 c 0.607601,-3.63138 3.404371,-9.88306 5.455054,-12.1938 1.455866,-1.64049 1.674714,-1.43644 9.553452,8.9074 9.110226,11.96063 10.549162,14.70945 9.880182,18.87423 -0.555629,3.45913 -3.192174,7.18086 -5.087043,7.18086 -0.756049,0 -1.374634,0.42187 -1.374634,0.9375 0,0.51562 -0.338824,0.9375 -0.752942,0.9375 -0.414117,0 -0.752941,-0.42188 -0.752941,-0.9375 z m 31.507722,-0.26419 c -0.68488,-0.62813 -1.98411,-1.77487 -2.88719,-2.54831 -2.7867,-2.38665 -3.98404,-6.20868 -3.04953,-9.73436 0.73287,-2.76492 5.64528,-9.79305 6.47871,-9.26901 3.14197,1.97558 4.83378,3.37453 6.60098,5.4583 1.73455,2.04528 2.6137,2.41804 4.70588,1.99531 1.74921,-0.35344 2.57284,-0.15418 2.57284,0.62242 0,1.95237 -11.42313,14.86116 -12.96175,14.64753 -0.1181,-0.0164 -0.77507,-0.54375 -1.45994,-1.17188 z M 75.604898,205.25244 c -0.532142,-0.79836 -0.798118,-1.6625 -0.591059,-1.92031 0.207059,-0.25781 0.811859,0.18445 1.344,0.98281 0.532142,0.79836 0.798119,1.6625 0.59106,1.92031 -0.207059,0.25781 -0.811859,-0.18445 -1.344001,-0.98281 z m 53.252862,-33.0667 c -2.37142,-2.98385 -4.31179,-5.62387 -4.31193,-5.86673 -4.4e-4,-0.82745 13.72871,-0.12927 14.42154,0.73338 0.71758,0.89348 -3.60036,9.70525 -5.02725,10.25928 -0.42387,0.16458 -2.71093,-2.14209 -5.08236,-5.12593 z"
         id="path78" />
      <path
         style="fill:#07b1ab;stroke-width:0.840168"
         d="m 75.604898,205.25244 c -0.532142,-0.79836 -0.798118,-1.6625 -0.591059,-1.92031 0.207059,-0.25781 0.811859,0.18445 1.344,0.98281 0.532142,0.79836 0.798119,1.6625 0.59106,1.92031 -0.207059,0.25781 -0.811859,-0.18445 -1.344001,-0.98281 z m 5.410537,-7.03227 c 0.353145,-1.17795 -0.430177,-1.37451 -4.806915,-1.2062 l -5.228811,0.20108 0.504061,-3.01255 c 0.600865,-3.59112 3.397608,-9.87544 5.398115,-12.12964 1.377755,-1.55247 1.660341,-1.33013 7.322295,5.76126 6.313936,7.90797 6.3368,8.17939 0.753281,8.94255 -0.985403,0.13468 -2.370405,0.8312 -3.077782,1.54782 -1.110157,1.12467 -1.228412,1.11039 -0.864244,-0.10432 z m 47.842325,-26.03443 c -2.37142,-2.98385 -4.31179,-5.62387 -4.31193,-5.86673 -4.4e-4,-0.82745 13.72871,-0.12927 14.42154,0.73338 0.71758,0.89348 -3.60036,9.70525 -5.02725,10.25928 -0.42387,0.16458 -2.71093,-2.14209 -5.08236,-5.12593 z"
         id="path76" />
      <path
         style="fill:#07aa9b;stroke-width:0.840168"
         d="m 75.619999,205.2751 c -0.593881,-0.89099 -0.651001,-1.42891 -0.151731,-1.42891 0.909971,0 1.970896,1.77862 1.448733,2.42878 -0.189515,0.23597 -0.773165,-0.21398 -1.297002,-0.99987 z m 8.06581,-11.0428 c -0.235534,-0.76424 -2.613958,-1.79475 -5.755892,-2.49388 l -5.354495,-1.19145 1.663426,-3.68513 c 3.246179,-7.19155 3.455622,-7.18856 9.290429,0.13256 4.025552,5.05099 4.865003,6.53929 3.688369,6.53929 -0.837835,0 -1.884934,0.45023 -2.326888,1.00052 -0.569441,0.70902 -0.920497,0.62106 -1.204949,-0.30191 z m 47.880001,-18.74549 c -3.02537,-4.18435 -2.90409,-4.45312 2.00944,-4.45312 h 4.6004 l -2.01004,3.28125 c -1.10552,1.80469 -2.24958,3.28125 -2.54235,3.28125 -0.29279,0 -1.21864,-0.94922 -2.05745,-2.10938 z"
         id="path74" />
    </g>
  </g>
</svg>
